<svg width="24" height="24" viewBox="0 0 24 24" fill="none" xmlns="http://www.w3.org/2000/svg">
<g clip-path="url(#clip0_102_852)">
<g clip-path="url(#clip1_102_852)">
<path d="M12 0.216C5.4816 0.216 0.19056 5.50752 0.19056 12.0254C0.19056 14.7859 1.16208 17.3424 2.74656 19.3618C4.0248 17.5469 5.4048 15.8342 7.14336 14.4283C7.19472 14.377 7.3224 14.3006 7.47552 14.1984C8.1912 13.6618 8.7024 12.8693 8.83008 11.9746V11.9491C9.26448 9.06048 10.4405 8.06352 13.7381 8.06352C14.0194 8.06352 14.3515 8.06352 14.6582 8.08896C16.3454 8.16576 17.3165 8.65152 17.4187 8.90688C17.4955 9.03456 17.4701 9.18816 17.4442 9.34128L17.3165 9.31584C16.2686 9.18816 14.6837 9.49488 14.4538 10.645C14.3261 11.2838 14.4792 11.9995 14.5306 12.6389C14.6074 13.3037 14.6582 13.9934 14.6582 14.6582C14.6582 14.7096 14.6069 14.965 14.6582 14.9904C12.8688 13.2778 8.72784 15.4248 7.42416 16.3709C7.55184 16.3195 7.68 16.2686 7.83312 16.2173C9.08544 15.7829 12.8434 14.6582 14.3002 15.9106C15.527 17.4187 14.4278 20.2051 13.5077 21.5851C12.971 22.403 12.3062 23.1442 11.5651 23.7835H11.9995C18.5179 23.7835 23.809 18.492 23.809 11.9741C23.809 5.45616 18.5438 0.216 12 0.216ZM13.3546 6.60624C12.0763 6.60624 11.0285 5.5584 11.0285 4.28016C11.0285 3.00192 12.0763 1.95408 13.3546 1.95408C14.6328 1.95408 15.6806 3.00192 15.6806 4.28016C15.6806 5.5584 14.6582 6.60624 13.3546 6.60624Z" fill="#FE4A3C"/>
</g>
</g>
<defs>
<clipPath id="clip0_102_852">
<rect width="24" height="24" fill="white"/>
</clipPath>
<clipPath id="clip1_102_852">
<rect width="24" height="24" fill="white"/>
</clipPath>
</defs>
</svg>
