<svg width="24" height="24" viewBox="0 0 24 24" fill="none" xmlns="http://www.w3.org/2000/svg">
<path d="M11.6648 4.87445C10.7448 4.65711 9.85185 4.54845 8.98597 4.54845C6.85736 4.54845 4.91816 5.21717 3.16836 6.55463C3.17738 6.47104 3.14582 6.25371 3.07366 5.90262C3.01052 5.54318 2.98797 5.32166 3.00601 5.23807C5.37815 3.4325 7.95774 2.01981 10.7448 1C14.3887 2.00309 17.7394 3.38235 20.7971 5.13776C20.5986 5.43869 20.3506 5.702 20.0529 5.9277C19.7553 6.1534 19.5073 6.41253 19.3088 6.7051C19.2457 6.86392 19.2141 7.08962 19.2141 7.38219V8.05928L19.3088 14.78C19.3359 15.3233 19.4441 15.6619 19.6335 15.7956L21 16.8363L18.6188 19.8582L15.5206 17.4257C15.7191 16.1133 15.8183 14.3955 15.8183 12.2723H10.7583C10.4156 15.2314 10.1538 16.1163 8.53929 18.1726C6.93381 20.229 5.48617 21.8381 4.19638 23C3.81756 22.7492 3.16815 22.3731 3.16815 22.3731C6.68599 18.1726 6.68599 15.7859 6.68599 12.1343C6.68599 10.7384 6.35677 9.43017 5.69835 8.20974C7.8901 7.19829 9.8789 6.08652 11.6648 4.87445ZM15.7642 9.32568C15.7461 8.33095 15.7371 7.72073 15.7371 7.49503C15.7371 7.26098 15.7416 6.99767 15.7506 6.7051C14.8577 6.11996 13.9197 5.63931 12.9365 5.26315C12.2961 5.70618 11.8091 6.21609 11.4754 6.79287C11.1416 7.36129 10.9432 8.20556 10.8801 9.32568H15.7642Z" fill="#7C7C7C"/>
</svg>
